<?xml version="1.0" encoding="utf-8"?>
<!-- Generator: Adobe Illustrator 15.1.0, SVG Export Plug-In . SVG Version: 6.00 Build 0)  -->
<!DOCTYPE svg PUBLIC "-//W3C//DTD SVG 1.1//EN" "http://www.w3.org/Graphics/SVG/1.1/DTD/svg11.dtd">
<svg version="1.1" id="レイヤー_1" xmlns="http://www.w3.org/2000/svg" xmlns:xlink="http://www.w3.org/1999/xlink" x="0px"
	 y="0px" width="2000px" height="1000px" viewBox="0 0 2000 1000" enable-background="new 0 0 2000 1000" xml:space="preserve">
<g>
	<rect x="1500" y="500" stroke="#FFFFFF" stroke-miterlimit="10" width="500" height="500"/>
	<rect x="1000" y="500" stroke="#FFFFFF" stroke-miterlimit="10" width="500" height="500"/>
	<rect x="1000" stroke="#FFFFFF" stroke-miterlimit="10" width="1000" height="500"/>
	<rect x="500" y="500" fill="#FFFFFF" stroke="#000000" stroke-miterlimit="10" width="500" height="500"/>
	<rect y="500" fill="#FFFFFF" stroke="#000000" stroke-miterlimit="10" width="500" height="500"/>
	<rect fill="#FFFFFF" stroke="#000000" stroke-miterlimit="10" width="1000" height="500"/>
</g>
<g>
	<path fill="#FFE000" d="M1765.383,759.844h-60l62.039-108.02C1761.76,650.83,1755.945,650,1750,650
		c-55.229,0-100,44.631-100,99.859c0,43.375,27.621,80.777,66.227,94.631L1765.383,759.844z"/>
	<path fill="#FFE000" d="M1784.73,656.484l-50.111,87.359h80.002l-9.238,16h-20l-51.758,89.082
		c5.332,0.877,10.797,1.074,16.375,1.074c55.229,0,100-44.631,100-99.859C1850,707.125,1822.836,670.6,1784.73,656.484z"/>
</g>
<g>
	<path fill="#FFE000" d="M765.383,759.844h-60l62.039-108.02C761.76,650.83,755.945,650,750,650c-55.229,0-100,44.631-100,99.859
		c0,43.375,27.621,80.777,66.227,94.631L765.383,759.844z"/>
	<path fill="#FFE000" d="M784.73,656.484l-50.111,87.359h80.002l-9.238,16h-20l-51.758,89.082C738.957,849.803,744.422,850,750,850
		c55.229,0,100-44.631,100-99.859C850,707.125,822.836,670.6,784.73,656.484z"/>
</g>
<g>
	<g>
		<path d="M304.008,268.722h19.135v7.175H296.28v-69.365h7.728V268.722z"/>
		<path d="M342.712,216.375c0,2.944-2.392,5.244-5.244,5.244s-5.244-2.3-5.244-5.244c0-2.852,2.392-5.243,5.244-5.243
			S342.712,213.523,342.712,216.375z M341.147,275.896h-7.36v-43.238h7.36V275.896z"/>
		<path d="M397.091,273.78c0,6.9,0,12.88-4.416,18.584c-4.048,5.152-10.304,7.636-16.743,7.636
			c-12.052,0-20.975-7.636-21.251-19.871h7.359c0.092,8.004,5.888,13.062,13.8,13.062c11.407,0,13.891-8.371,13.891-18.122v-5.152
			h-0.184c-3.496,4.509-9.2,7.176-14.996,7.176c-12.604,0-20.607-10.579-20.607-22.631c0-12.144,8.095-23,20.883-23
			c5.979,0,11.223,2.669,14.719,7.36h0.184v-6.164h7.36V273.78z M361.489,253.817c0,8.464,4.968,16.468,14.167,16.468
			c9.476,0,14.444-7.635,14.444-16.376c0-8.647-5.428-15.639-14.536-15.639C367.008,238.271,361.489,245.723,361.489,253.817z"/>
		<path d="M420.34,200v37.719l0.184,0.185c3.036-4.141,6.992-6.441,12.328-6.441c11.959,0,14.719,8.648,14.719,18.768v25.667h-7.359
			v-24.379c0-6.992-0.553-13.247-9.107-13.247c-10.12,0-10.764,9.384-10.764,17.111v20.515h-7.36V200H420.34z"/>
		<path d="M471.068,275.896h-7.359v-36.43h-4.508v-6.809h4.508v-15.547h7.359v15.547h7.727v6.809h-7.727V275.896z"/>
		<path d="M495.787,237.903h0.185c3.036-4.141,6.991-6.441,12.327-6.441c11.96,0,14.72,8.648,14.72,18.768v25.667h-7.36v-24.379
			c0-6.992-0.552-13.247-9.107-13.247c-10.12,0-10.764,9.384-10.764,17.111v20.515h-7.359v-43.238h7.359V237.903z"/>
		<path d="M548.005,216.375c0,2.944-2.392,5.244-5.244,5.244c-2.851,0-5.242-2.3-5.242-5.244c0-2.852,2.392-5.243,5.242-5.243
			C545.613,211.132,548.005,213.523,548.005,216.375z M546.442,275.896h-7.361v-43.238h7.361V275.896z"/>
		<path d="M570.048,237.903h0.186c3.035-4.141,6.992-6.441,12.326-6.441c11.959,0,14.721,8.648,14.721,18.768v25.667h-7.361v-24.379
			c0-6.992-0.551-13.247-9.107-13.247c-10.119,0-10.764,9.384-10.764,17.111v20.515h-7.359v-43.238h7.359V237.903z"/>
		<path d="M652.827,273.78c0,6.9,0,12.88-4.414,18.584c-4.049,5.152-10.305,7.636-16.744,7.636
			c-12.053,0-20.975-7.636-21.252-19.871h7.361c0.092,8.004,5.887,13.062,13.797,13.062c11.408,0,13.893-8.371,13.893-18.122v-5.152
			h-0.184c-3.496,4.509-9.199,7.176-14.996,7.176c-12.604,0-20.605-10.579-20.605-22.631c0-12.144,8.096-23,20.881-23
			c5.98,0,11.225,2.669,14.721,7.36h0.184v-6.164h7.359V273.78z M617.226,253.817c0,8.464,4.967,16.468,14.166,16.468
			c9.477,0,14.443-7.635,14.443-16.376c0-8.647-5.426-15.639-14.535-15.639C622.745,238.271,617.226,245.723,617.226,253.817z"/>
		<path d="M718.114,275.896h-7.727v-62.189h-16.742v-7.176h41.398v7.176h-16.93V275.896z"/>
		<path d="M779.128,275.896h-7.361v-5.979h-0.184c-3.771,4.784-8.83,7.176-14.9,7.176c-12.697,0-20.701-10.763-20.701-22.723
			c0-12.328,7.82-22.908,20.793-22.908c5.887,0,11.221,2.761,14.809,7.36h0.184v-6.164h7.361V275.896z M743.524,253.817
			c0,8.464,4.969,16.468,14.168,16.468c9.477,0,14.445-7.635,14.445-16.376c0-8.647-5.43-15.639-14.537-15.639
			C749.046,238.271,743.524,245.723,743.524,253.817z"/>
		<path d="M801.964,275.896h-7.359V200h7.359V275.896z"/>
		<path d="M824.649,248.666l15.73-16.008h9.844l-18.49,18.4l21.986,24.838h-9.752l-17.387-19.688l-1.932,1.933v17.755h-7.361V200
			h7.361V248.666z"/>
	</g>
	<g>
		<path fill="#FFE000" d="M203.972,254.922h-30l31.019-54.009c-2.831-0.498-5.738-0.913-8.71-0.913c-27.614,0-50,22.315-50,49.93
			c0,21.688,13.81,40.389,33.114,47.315L203.972,254.922z"/>
		<path fill="#FFE000" d="M213.645,203.243l-25.055,43.679h40l-4.619,8h-10l-25.878,44.541c2.665,0.438,5.397,0.537,8.187,0.537
			c27.614,0,50-22.315,50-49.93C246.28,228.562,232.698,210.3,213.645,203.243z"/>
	</g>
</g>
<g>
	<g>
		<path fill="#FFFFFF" d="M1304.008,268.722h19.135v7.175h-26.862v-69.365h7.728V268.722z"/>
		<path fill="#FFFFFF" d="M1342.712,216.375c0,2.944-2.392,5.244-5.244,5.244s-5.243-2.3-5.243-5.244
			c0-2.852,2.391-5.243,5.243-5.243S1342.712,213.523,1342.712,216.375z M1341.147,275.896h-7.36v-43.238h7.36V275.896z"/>
		<path fill="#FFFFFF" d="M1397.092,273.78c0,6.9,0,12.88-4.416,18.584c-4.049,5.152-10.305,7.636-16.744,7.636
			c-12.051,0-20.975-7.636-21.25-19.871h7.359c0.092,8.004,5.887,13.062,13.799,13.062c11.408,0,13.892-8.371,13.892-18.122v-5.152
			h-0.184c-3.496,4.509-9.2,7.176-14.995,7.176c-12.604,0-20.607-10.579-20.607-22.631c0-12.144,8.096-23,20.883-23
			c5.98,0,11.224,2.669,14.72,7.36h0.184v-6.164h7.36V273.78z M1361.488,253.817c0,8.464,4.969,16.468,14.168,16.468
			c9.476,0,14.443-7.635,14.443-16.376c0-8.647-5.428-15.639-14.535-15.639C1367.008,238.271,1361.488,245.723,1361.488,253.817z"/>
		<path fill="#FFFFFF" d="M1420.34,200v37.719l0.184,0.185c3.036-4.141,6.992-6.441,12.328-6.441
			c11.959,0,14.719,8.648,14.719,18.768v25.667h-7.359v-24.379c0-6.992-0.553-13.247-9.107-13.247
			c-10.12,0-10.764,9.384-10.764,17.111v20.515h-7.359V200H1420.34z"/>
		<path fill="#FFFFFF" d="M1471.068,275.896h-7.359v-36.43h-4.508v-6.809h4.508v-15.547h7.359v15.547h7.727v6.809h-7.727V275.896z"
			/>
		<path fill="#FFFFFF" d="M1495.787,237.903h0.185c3.036-4.141,6.991-6.441,12.327-6.441c11.96,0,14.72,8.648,14.72,18.768v25.667
			h-7.36v-24.379c0-6.992-0.552-13.247-9.107-13.247c-10.12,0-10.764,9.384-10.764,17.111v20.515h-7.359v-43.238h7.359V237.903z"/>
		<path fill="#FFFFFF" d="M1548.005,216.375c0,2.944-2.392,5.244-5.244,5.244c-2.851,0-5.242-2.3-5.242-5.244
			c0-2.852,2.392-5.243,5.242-5.243C1545.613,211.132,1548.005,213.523,1548.005,216.375z M1546.442,275.896h-7.361v-43.238h7.361
			V275.896z"/>
		<path fill="#FFFFFF" d="M1570.048,237.903h0.186c3.035-4.141,6.992-6.441,12.326-6.441c11.959,0,14.721,8.648,14.721,18.768
			v25.667h-7.361v-24.379c0-6.992-0.551-13.247-9.107-13.247c-10.119,0-10.764,9.384-10.764,17.111v20.515h-7.359v-43.238h7.359
			V237.903z"/>
		<path fill="#FFFFFF" d="M1652.827,273.78c0,6.9,0,12.88-4.414,18.584c-4.049,5.152-10.305,7.636-16.744,7.636
			c-12.053,0-20.975-7.636-21.252-19.871h7.361c0.092,8.004,5.887,13.062,13.797,13.062c11.408,0,13.893-8.371,13.893-18.122v-5.152
			h-0.184c-3.496,4.509-9.199,7.176-14.996,7.176c-12.604,0-20.605-10.579-20.605-22.631c0-12.144,8.096-23,20.881-23
			c5.98,0,11.225,2.669,14.721,7.36h0.184v-6.164h7.359V273.78z M1617.226,253.817c0,8.464,4.967,16.468,14.166,16.468
			c9.477,0,14.443-7.635,14.443-16.376c0-8.647-5.426-15.639-14.535-15.639C1622.745,238.271,1617.226,245.723,1617.226,253.817z"/>
		<path fill="#FFFFFF" d="M1718.114,275.896h-7.727v-62.189h-16.742v-7.176h41.398v7.176h-16.93V275.896z"/>
		<path fill="#FFFFFF" d="M1779.128,275.896h-7.361v-5.979h-0.184c-3.771,4.784-8.83,7.176-14.9,7.176
			c-12.697,0-20.701-10.763-20.701-22.723c0-12.328,7.82-22.908,20.793-22.908c5.887,0,11.221,2.761,14.809,7.36h0.184v-6.164h7.361
			V275.896z M1743.524,253.817c0,8.464,4.969,16.468,14.168,16.468c9.477,0,14.445-7.635,14.445-16.376
			c0-8.647-5.43-15.639-14.537-15.639C1749.046,238.271,1743.524,245.723,1743.524,253.817z"/>
		<path fill="#FFFFFF" d="M1801.964,275.896h-7.359V200h7.359V275.896z"/>
		<path fill="#FFFFFF" d="M1824.649,248.666l15.73-16.008h9.844l-18.49,18.4l21.986,24.838h-9.752l-17.387-19.688l-1.932,1.933
			v17.755h-7.361V200h7.361V248.666z"/>
	</g>
	<g>
		<path fill="#FFE000" d="M1203.972,254.922h-30l31.02-54.01c-2.831-0.497-5.738-0.912-8.711-0.912c-27.614,0-50,22.315-50,49.93
			c0,21.688,13.811,40.389,33.113,47.315L1203.972,254.922z"/>
		<path fill="#FFE000" d="M1213.646,203.242l-25.056,43.68h40.001l-4.619,8h-10l-25.879,44.541c2.666,0.438,5.398,0.537,8.188,0.537
			c27.614,0,50-22.315,50-49.93C1246.28,228.562,1232.698,210.301,1213.646,203.242z"/>
	</g>
</g>
<g>
	<g>
		<path d="M104.159,883.167h10.297v3.86H100v-37.329h4.159V883.167z"/>
		<path d="M124.988,854.996c0,1.584-1.287,2.821-2.823,2.821c-1.535,0-2.821-1.237-2.821-2.821c0-1.534,1.286-2.822,2.821-2.822
			C123.701,852.174,124.988,853.462,124.988,854.996z M124.146,887.027h-3.961V863.76h3.961V887.027z"/>
		<path d="M154.254,885.89c0,3.713,0,6.932-2.377,10.001c-2.178,2.772-5.545,4.109-9.011,4.109c-6.485,0-11.289-4.109-11.436-10.694
			h3.96c0.05,4.309,3.168,7.031,7.426,7.031c6.14,0,7.476-4.506,7.476-9.753v-2.773h-0.099c-1.881,2.426-4.952,3.862-8.07,3.862
			c-6.784,0-11.091-5.694-11.091-12.18c0-6.537,4.357-12.379,11.239-12.379c3.218,0,6.04,1.437,7.921,3.962h0.099v-3.316h3.961
			V885.89z M135.094,875.146c0,4.555,2.674,8.862,7.625,8.862c5.1,0,7.773-4.109,7.773-8.813c0-4.653-2.92-8.416-7.822-8.416
			C138.063,866.779,135.094,870.789,135.094,875.146z"/>
		<path d="M166.766,846.183v20.299l0.099,0.1c1.634-2.229,3.763-3.467,6.635-3.467c6.436,0,7.921,4.654,7.921,10.102v13.812h-3.961
			v-13.119c0-3.763-0.297-7.129-4.901-7.129c-5.447,0-5.793,5.049-5.793,9.209v11.039h-3.96v-40.845H166.766z"/>
		<path d="M194.067,887.027h-3.961v-19.605h-2.426v-3.662h2.426v-8.367h3.961v8.367h4.157v3.662h-4.157V887.027z"/>
		<path d="M207.369,866.581h0.1c1.635-2.229,3.763-3.467,6.634-3.467c6.437,0,7.922,4.654,7.922,10.102v13.812h-3.96v-13.119
			c0-3.763-0.298-7.129-4.902-7.129c-5.446,0-5.793,5.049-5.793,9.209v11.039h-3.96V863.76h3.96V866.581z"/>
		<path d="M235.472,854.996c0,1.584-1.287,2.821-2.823,2.821c-1.533,0-2.821-1.237-2.821-2.821c0-1.534,1.288-2.822,2.821-2.822
			C234.185,852.174,235.472,853.462,235.472,854.996z M234.631,887.027h-3.962V863.76h3.962V887.027z"/>
		<path d="M247.335,866.581h0.099c1.634-2.229,3.763-3.467,6.635-3.467c6.435,0,7.921,4.654,7.921,10.102v13.812h-3.961v-13.119
			c0-3.763-0.296-7.129-4.901-7.129c-5.446,0-5.792,5.049-5.792,9.209v11.039h-3.96V863.76h3.96V866.581z"/>
		<path d="M291.885,885.89c0,3.713,0,6.932-2.375,10.001c-2.179,2.772-5.546,4.109-9.011,4.109c-6.487,0-11.288-4.109-11.438-10.694
			h3.962c0.049,4.309,3.168,7.031,7.425,7.031c6.139,0,7.476-4.506,7.476-9.753v-2.773h-0.098c-1.881,2.426-4.951,3.862-8.071,3.862
			c-6.782,0-11.089-5.694-11.089-12.18c0-6.537,4.357-12.379,11.238-12.379c3.219,0,6.041,1.437,7.922,3.962h0.098v-3.316h3.961
			V885.89z M272.724,875.146c0,4.555,2.674,8.862,7.625,8.862c5.1,0,7.773-4.109,7.773-8.813c0-4.653-2.92-8.416-7.822-8.416
			C275.695,866.779,272.724,870.789,272.724,875.146z"/>
		<path d="M327.021,887.027h-4.158V853.56h-9.01v-3.861h22.279v3.861h-9.111V887.027z"/>
		<path d="M359.856,887.027h-3.961v-3.217h-0.099c-2.031,2.573-4.753,3.862-8.02,3.862c-6.833,0-11.141-5.792-11.141-12.229
			c0-6.634,4.209-12.329,11.19-12.329c3.168,0,6.038,1.486,7.97,3.962h0.099v-3.316h3.961V887.027z M340.696,875.146
			c0,4.555,2.674,8.862,7.625,8.862c5.101,0,7.774-4.109,7.774-8.813c0-4.653-2.922-8.416-7.824-8.416
			C343.667,866.779,340.696,870.789,340.696,875.146z"/>
		<path d="M372.146,887.027h-3.961v-40.845h3.961V887.027z"/>
		<path d="M384.355,872.373l8.465-8.613h5.298l-9.951,9.901L400,887.027h-5.248l-9.358-10.596l-1.039,1.041v9.555h-3.962v-40.845
			h3.962V872.373z"/>
	</g>
	<g>
		<path fill="#FFE000" d="M265.383,709.844h-60l62.038-108.02C261.76,600.83,255.945,600,250,600c-55.229,0-100,44.631-100,99.859
			c0,43.375,27.62,80.777,66.228,94.631L265.383,709.844z"/>
		<path fill="#FFE000" d="M284.729,606.484l-50.11,87.359h80.001l-9.238,16h-19.999l-51.757,89.082
			C238.956,799.803,244.421,800,250,800c55.229,0,100-44.631,100-99.859C350,657.125,322.836,620.602,284.729,606.484z"/>
	</g>
</g>
<g>
	<g>
		<path fill="#FFFFFF" d="M1104.159,883.167h10.298v3.86H1100v-37.329h4.159V883.167z"/>
		<path fill="#FFFFFF" d="M1124.988,854.996c0,1.584-1.287,2.821-2.822,2.821s-2.822-1.237-2.822-2.821
			c0-1.534,1.287-2.822,2.822-2.822S1124.988,853.462,1124.988,854.996z M1124.146,887.027h-3.961V863.76h3.961V887.027z"/>
		<path fill="#FFFFFF" d="M1154.254,885.89c0,3.713,0,6.932-2.377,10.001c-2.178,2.772-5.545,4.109-9.01,4.109
			c-6.486,0-11.289-4.109-11.437-10.694h3.96c0.051,4.309,3.168,7.031,7.426,7.031c6.141,0,7.477-4.506,7.477-9.753v-2.773h-0.099
			c-1.882,2.426-4.952,3.862-8.069,3.862c-6.784,0-11.092-5.694-11.092-12.18c0-6.537,4.357-12.379,11.24-12.379
			c3.218,0,6.039,1.437,7.921,3.962h0.099v-3.316h3.961V885.89z M1135.094,875.146c0,4.555,2.674,8.862,7.625,8.862
			c5.1,0,7.772-4.109,7.772-8.813c0-4.653-2.921-8.416-7.822-8.416C1138.063,866.779,1135.094,870.789,1135.094,875.146z"/>
		<path fill="#FFFFFF" d="M1166.766,846.183v20.299l0.099,0.1c1.634-2.229,3.763-3.467,6.635-3.467
			c6.436,0,7.921,4.654,7.921,10.102v13.812h-3.961v-13.119c0-3.763-0.297-7.129-4.9-7.129c-5.447,0-5.793,5.049-5.793,9.209v11.039
			h-3.961v-40.845H1166.766z"/>
		<path fill="#FFFFFF" d="M1194.066,887.027h-3.961v-19.605h-2.426v-3.662h2.426v-8.367h3.961v8.367h4.158v3.662h-4.158V887.027z"/>
		<path fill="#FFFFFF" d="M1207.369,866.581h0.1c1.635-2.229,3.764-3.467,6.635-3.467c6.436,0,7.922,4.654,7.922,10.102v13.812
			h-3.961v-13.119c0-3.763-0.298-7.129-4.902-7.129c-5.446,0-5.793,5.049-5.793,9.209v11.039h-3.96V863.76h3.96V866.581z"/>
		<path fill="#FFFFFF" d="M1235.472,854.996c0,1.584-1.287,2.821-2.823,2.821c-1.533,0-2.82-1.237-2.82-2.821
			c0-1.534,1.287-2.822,2.82-2.822C1234.185,852.174,1235.472,853.462,1235.472,854.996z M1234.631,887.027h-3.962V863.76h3.962
			V887.027z"/>
		<path fill="#FFFFFF" d="M1247.335,866.581h0.099c1.635-2.229,3.764-3.467,6.635-3.467c6.436,0,7.922,4.654,7.922,10.102v13.812
			h-3.961v-13.119c0-3.763-0.297-7.129-4.902-7.129c-5.445,0-5.792,5.049-5.792,9.209v11.039h-3.96V863.76h3.96V866.581z"/>
		<path fill="#FFFFFF" d="M1291.885,885.89c0,3.713,0,6.932-2.375,10.001c-2.18,2.772-5.547,4.109-9.012,4.109
			c-6.487,0-11.288-4.109-11.438-10.694h3.962c0.049,4.309,3.169,7.031,7.425,7.031c6.14,0,7.477-4.506,7.477-9.753v-2.773h-0.099
			c-1.882,2.426-4.95,3.862-8.071,3.862c-6.782,0-11.089-5.694-11.089-12.18c0-6.537,4.357-12.379,11.237-12.379
			c3.22,0,6.041,1.437,7.923,3.962h0.099v-3.316h3.961V885.89z M1272.725,875.146c0,4.555,2.674,8.862,7.624,8.862
			c5.101,0,7.772-4.109,7.772-8.813c0-4.653-2.92-8.416-7.822-8.416C1275.695,866.779,1272.725,870.789,1272.725,875.146z"/>
		<path fill="#FFFFFF" d="M1327.021,887.027h-4.158V853.56h-9.01v-3.861h22.279v3.861h-9.111V887.027z"/>
		<path fill="#FFFFFF" d="M1359.855,887.027h-3.961v-3.217h-0.098c-2.031,2.573-4.754,3.862-8.02,3.862
			c-6.833,0-11.141-5.792-11.141-12.229c0-6.634,4.209-12.329,11.189-12.329c3.168,0,6.039,1.486,7.971,3.962h0.098v-3.316h3.961
			V887.027z M1340.695,875.146c0,4.555,2.674,8.862,7.625,8.862c5.101,0,7.774-4.109,7.774-8.813c0-4.653-2.923-8.416-7.823-8.416
			C1343.667,866.779,1340.695,870.789,1340.695,875.146z"/>
		<path fill="#FFFFFF" d="M1372.146,887.027h-3.961v-40.845h3.961V887.027z"/>
		<path fill="#FFFFFF" d="M1384.355,872.373l8.465-8.613h5.299l-9.951,9.901L1400,887.027h-5.248l-9.357-10.596l-1.039,1.041v9.555
			h-3.962v-40.845h3.962V872.373z"/>
	</g>
	<g>
		<path fill="#FFE000" d="M1265.383,709.844h-60l62.038-108.02C1261.76,600.83,1255.945,600,1250,600
			c-55.229,0-100,44.631-100,99.859c0,43.375,27.62,80.777,66.228,94.631L1265.383,709.844z"/>
		<path fill="#FFE000" d="M1284.729,606.484l-50.11,87.359h80.001l-9.238,16h-19.999l-51.757,89.082
			c5.33,0.877,10.795,1.074,16.374,1.074c55.229,0,100-44.631,100-99.859C1350,657.125,1322.836,620.602,1284.729,606.484z"/>
	</g>
</g>
</svg>
